<mxfile host="app.diagrams.net" agent="Mozilla/5.0 (Macintosh; Intel Mac OS X 10_15_7) AppleWebKit/537.36 (KHTML, like Gecko) Chrome/138.0.0.0 Safari/537.36" version="27.2.0">
  <diagram name="第 1 页" id="C09MD2E2f5ExPKEXglJg">
    <mxGraphModel dx="2066" dy="1209" grid="1" gridSize="10" guides="1" tooltips="1" connect="1" arrows="1" fold="1" page="1" pageScale="1" pageWidth="827" pageHeight="1169" math="0" shadow="0">
      <root>
        <mxCell id="0" />
        <mxCell id="1" parent="0" />
        <mxCell id="x5xSPJmqWj5T0jCHBnaX-17" value="" style="endArrow=classic;html=1;rounded=0;" edge="1" parent="1">
          <mxGeometry width="50" height="50" relative="1" as="geometry">
            <mxPoint x="404.5" y="317" as="sourcePoint" />
            <mxPoint x="404.5" y="342" as="targetPoint" />
          </mxGeometry>
        </mxCell>
        <mxCell id="x5xSPJmqWj5T0jCHBnaX-19" value="&lt;font style=&quot;font-size: 14px;&quot;&gt;request_0_d0:&lt;/font&gt;&lt;div&gt;&lt;font style=&quot;font-size: 14px;&quot;&gt;microbatch=256&lt;/font&gt;&lt;/div&gt;" style="text;html=1;align=center;verticalAlign=middle;whiteSpace=wrap;rounded=0;" vertex="1" parent="1">
          <mxGeometry x="340" y="280" width="130" height="30" as="geometry" />
        </mxCell>
        <mxCell id="x5xSPJmqWj5T0jCHBnaX-21" value="&lt;font style=&quot;font-size: 14px;&quot;&gt;request_1_d0:&lt;/font&gt;&lt;div&gt;&lt;font style=&quot;font-size: 14px;&quot;&gt;microbatch=256&lt;/font&gt;&lt;/div&gt;" style="text;html=1;align=center;verticalAlign=middle;whiteSpace=wrap;rounded=0;" vertex="1" parent="1">
          <mxGeometry x="465" y="280" width="130" height="30" as="geometry" />
        </mxCell>
        <mxCell id="x5xSPJmqWj5T0jCHBnaX-28" value="" style="endArrow=classic;html=1;rounded=0;" edge="1" parent="1">
          <mxGeometry width="50" height="50" relative="1" as="geometry">
            <mxPoint x="531" y="318" as="sourcePoint" />
            <mxPoint x="531" y="343" as="targetPoint" />
          </mxGeometry>
        </mxCell>
        <mxCell id="x5xSPJmqWj5T0jCHBnaX-29" value="" style="endArrow=classic;html=1;rounded=0;" edge="1" parent="1">
          <mxGeometry width="50" height="50" relative="1" as="geometry">
            <mxPoint x="647.5" y="317" as="sourcePoint" />
            <mxPoint x="647.5" y="342" as="targetPoint" />
          </mxGeometry>
        </mxCell>
        <mxCell id="x5xSPJmqWj5T0jCHBnaX-30" value="&lt;font style=&quot;font-size: 14px;&quot;&gt;request_2_d0:&lt;/font&gt;&lt;div&gt;&lt;font style=&quot;font-size: 14px;&quot;&gt;microbatch=256&lt;/font&gt;&lt;/div&gt;" style="text;html=1;align=center;verticalAlign=middle;whiteSpace=wrap;rounded=0;" vertex="1" parent="1">
          <mxGeometry x="590" y="280" width="130" height="30" as="geometry" />
        </mxCell>
        <mxCell id="x5xSPJmqWj5T0jCHBnaX-31" value="&lt;font style=&quot;font-size: 14px;&quot;&gt;request_3_d0:&lt;/font&gt;&lt;div&gt;&lt;font style=&quot;font-size: 14px;&quot;&gt;microbatch=256&lt;/font&gt;&lt;/div&gt;" style="text;html=1;align=center;verticalAlign=middle;whiteSpace=wrap;rounded=0;" vertex="1" parent="1">
          <mxGeometry x="715" y="280" width="130" height="30" as="geometry" />
        </mxCell>
        <mxCell id="x5xSPJmqWj5T0jCHBnaX-32" value="" style="endArrow=classic;html=1;rounded=0;" edge="1" parent="1">
          <mxGeometry width="50" height="50" relative="1" as="geometry">
            <mxPoint x="771" y="318" as="sourcePoint" />
            <mxPoint x="771" y="343" as="targetPoint" />
          </mxGeometry>
        </mxCell>
        <mxCell id="x5xSPJmqWj5T0jCHBnaX-49" value="&lt;font face=&quot;Tahoma&quot; style=&quot;font-size: 16px;&quot;&gt;&lt;b&gt;Node_0&lt;/b&gt;&lt;/font&gt;" style="text;html=1;align=center;verticalAlign=middle;whiteSpace=wrap;rounded=0;" vertex="1" parent="1">
          <mxGeometry x="260" y="360" width="80" height="30" as="geometry" />
        </mxCell>
        <mxCell id="x5xSPJmqWj5T0jCHBnaX-50" value="&lt;font face=&quot;Tahoma&quot; style=&quot;font-size: 16px;&quot;&gt;&lt;b&gt;Node_1&lt;/b&gt;&lt;/font&gt;" style="text;html=1;align=center;verticalAlign=middle;whiteSpace=wrap;rounded=0;" vertex="1" parent="1">
          <mxGeometry x="260" y="420" width="80" height="30" as="geometry" />
        </mxCell>
        <mxCell id="x5xSPJmqWj5T0jCHBnaX-51" value="&lt;font face=&quot;Tahoma&quot; style=&quot;font-size: 16px;&quot;&gt;&lt;b&gt;Node_2&lt;/b&gt;&lt;/font&gt;" style="text;html=1;align=center;verticalAlign=middle;whiteSpace=wrap;rounded=0;" vertex="1" parent="1">
          <mxGeometry x="260" y="480" width="80" height="30" as="geometry" />
        </mxCell>
        <mxCell id="x5xSPJmqWj5T0jCHBnaX-52" value="&lt;font face=&quot;Tahoma&quot; style=&quot;font-size: 16px;&quot;&gt;&lt;b&gt;Node_3&lt;/b&gt;&lt;/font&gt;" style="text;html=1;align=center;verticalAlign=middle;whiteSpace=wrap;rounded=0;" vertex="1" parent="1">
          <mxGeometry x="260" y="540" width="80" height="30" as="geometry" />
        </mxCell>
        <mxCell id="x5xSPJmqWj5T0jCHBnaX-53" value="" style="endArrow=classic;html=1;rounded=0;" edge="1" parent="1">
          <mxGeometry width="50" height="50" relative="1" as="geometry">
            <mxPoint x="360" y="613" as="sourcePoint" />
            <mxPoint x="1800" y="613" as="targetPoint" />
          </mxGeometry>
        </mxCell>
        <mxCell id="x5xSPJmqWj5T0jCHBnaX-54" value="&lt;font face=&quot;Tahoma&quot; style=&quot;font-size: 16px;&quot;&gt;t&lt;/font&gt;" style="text;html=1;align=center;verticalAlign=middle;whiteSpace=wrap;rounded=0;" vertex="1" parent="1">
          <mxGeometry x="360" y="610" width="20" height="30" as="geometry" />
        </mxCell>
        <mxCell id="x5xSPJmqWj5T0jCHBnaX-1" value="&lt;span&gt;request_0_d0&lt;/span&gt;&lt;div&gt;&lt;span&gt;20/80&lt;/span&gt;&lt;/div&gt;" style="rounded=0;whiteSpace=wrap;html=1;fillColor=#dae8fc;strokeColor=#6c8ebf;fontFamily=Tahoma;fontSize=18;" vertex="1" parent="1">
          <mxGeometry x="350" y="345" width="130" height="60" as="geometry" />
        </mxCell>
        <mxCell id="x5xSPJmqWj5T0jCHBnaX-2" value="&lt;span&gt;request_1_d0&lt;/span&gt;&lt;div&gt;&lt;span&gt;20/80&lt;/span&gt;&lt;/div&gt;" style="rounded=0;whiteSpace=wrap;html=1;fillColor=#ffe6cc;strokeColor=#d79b00;fontFamily=Tahoma;fontSize=18;" vertex="1" parent="1">
          <mxGeometry x="480" y="345" width="130" height="60" as="geometry" />
        </mxCell>
        <mxCell id="x5xSPJmqWj5T0jCHBnaX-3" value="&lt;span&gt;request_2_d0&lt;/span&gt;&lt;div&gt;&lt;span&gt;20/80&lt;/span&gt;&lt;/div&gt;" style="rounded=0;whiteSpace=wrap;html=1;fillColor=#e3c800;strokeColor=#B09500;fontColor=#000000;fontFamily=Tahoma;fontSize=18;" vertex="1" parent="1">
          <mxGeometry x="610" y="345" width="130" height="60" as="geometry" />
        </mxCell>
        <mxCell id="x5xSPJmqWj5T0jCHBnaX-4" value="&lt;span&gt;request_3_d0&lt;/span&gt;&lt;div&gt;&lt;span&gt;20/80&lt;/span&gt;&lt;/div&gt;" style="rounded=0;whiteSpace=wrap;html=1;fillColor=#f8cecc;strokeColor=#b85450;fontFamily=Tahoma;fontSize=18;" vertex="1" parent="1">
          <mxGeometry x="740" y="345" width="130" height="60" as="geometry" />
        </mxCell>
        <mxCell id="x5xSPJmqWj5T0jCHBnaX-5" value="&lt;span&gt;request_0_d0&lt;/span&gt;&lt;div&gt;&lt;span&gt;40/80&lt;/span&gt;&lt;/div&gt;" style="rounded=0;whiteSpace=wrap;html=1;fillColor=#dae8fc;strokeColor=#6c8ebf;fontFamily=Tahoma;fontSize=18;" vertex="1" parent="1">
          <mxGeometry x="480" y="405" width="130" height="60" as="geometry" />
        </mxCell>
        <mxCell id="x5xSPJmqWj5T0jCHBnaX-6" value="&lt;span&gt;request_1&lt;/span&gt;&lt;span&gt;_d0&lt;/span&gt;&lt;div&gt;&lt;span&gt;40/80&lt;/span&gt;&lt;/div&gt;" style="rounded=0;whiteSpace=wrap;html=1;fillColor=#ffe6cc;strokeColor=#d79b00;fontFamily=Tahoma;fontSize=18;" vertex="1" parent="1">
          <mxGeometry x="610" y="405" width="130" height="60" as="geometry" />
        </mxCell>
        <mxCell id="x5xSPJmqWj5T0jCHBnaX-7" value="&lt;span&gt;request_2&lt;/span&gt;&lt;span&gt;_d0&lt;/span&gt;&lt;div&gt;&lt;span&gt;40/80&lt;/span&gt;&lt;/div&gt;" style="rounded=0;whiteSpace=wrap;html=1;fillColor=#e3c800;strokeColor=#B09500;fontColor=#000000;fontFamily=Tahoma;fontSize=18;" vertex="1" parent="1">
          <mxGeometry x="740" y="405" width="130" height="60" as="geometry" />
        </mxCell>
        <mxCell id="x5xSPJmqWj5T0jCHBnaX-8" value="&lt;span&gt;request_3&lt;/span&gt;&lt;span&gt;_d0&lt;/span&gt;&lt;div&gt;&lt;span&gt;40/80&lt;/span&gt;&lt;/div&gt;" style="rounded=0;whiteSpace=wrap;html=1;fillColor=#f8cecc;strokeColor=#b85450;fontFamily=Tahoma;fontSize=18;" vertex="1" parent="1">
          <mxGeometry x="870" y="405" width="130" height="60" as="geometry" />
        </mxCell>
        <mxCell id="x5xSPJmqWj5T0jCHBnaX-9" value="&lt;span&gt;request_0&lt;/span&gt;&lt;span&gt;_d0&lt;/span&gt;&lt;div&gt;&lt;span&gt;60/80&lt;/span&gt;&lt;/div&gt;" style="rounded=0;whiteSpace=wrap;html=1;fillColor=#dae8fc;strokeColor=#6c8ebf;fontFamily=Tahoma;fontSize=18;" vertex="1" parent="1">
          <mxGeometry x="610" y="465" width="130" height="60" as="geometry" />
        </mxCell>
        <mxCell id="x5xSPJmqWj5T0jCHBnaX-10" value="&lt;span&gt;request_1&lt;/span&gt;&lt;span&gt;_d0&lt;/span&gt;&lt;div&gt;&lt;span&gt;60/80&lt;/span&gt;&lt;/div&gt;" style="rounded=0;whiteSpace=wrap;html=1;fillColor=#ffe6cc;strokeColor=#d79b00;fontFamily=Tahoma;fontSize=18;" vertex="1" parent="1">
          <mxGeometry x="740" y="465" width="130" height="60" as="geometry" />
        </mxCell>
        <mxCell id="x5xSPJmqWj5T0jCHBnaX-11" value="&lt;span&gt;request_2&lt;/span&gt;&lt;span&gt;_d0&lt;/span&gt;&lt;div&gt;&lt;span&gt;60/80&lt;/span&gt;&lt;/div&gt;" style="rounded=0;whiteSpace=wrap;html=1;fillColor=#e3c800;strokeColor=#B09500;fontColor=#000000;fontFamily=Tahoma;fontSize=18;" vertex="1" parent="1">
          <mxGeometry x="870" y="465" width="130" height="60" as="geometry" />
        </mxCell>
        <mxCell id="x5xSPJmqWj5T0jCHBnaX-12" value="&lt;span&gt;request_3&lt;/span&gt;&lt;span&gt;_d0&lt;/span&gt;&lt;div&gt;&lt;span&gt;60/80&lt;/span&gt;&lt;/div&gt;" style="rounded=0;whiteSpace=wrap;html=1;fillColor=#f8cecc;strokeColor=#b85450;fontFamily=Tahoma;fontSize=18;" vertex="1" parent="1">
          <mxGeometry x="1000" y="465" width="130" height="60" as="geometry" />
        </mxCell>
        <mxCell id="x5xSPJmqWj5T0jCHBnaX-13" value="&lt;span&gt;request_0&lt;/span&gt;&lt;span&gt;_d0&lt;/span&gt;&lt;div&gt;&lt;span&gt;80/80&lt;/span&gt;&lt;/div&gt;" style="rounded=0;whiteSpace=wrap;html=1;fillColor=#dae8fc;strokeColor=#6c8ebf;fontFamily=Tahoma;fontSize=18;" vertex="1" parent="1">
          <mxGeometry x="740" y="525" width="130" height="60" as="geometry" />
        </mxCell>
        <mxCell id="x5xSPJmqWj5T0jCHBnaX-14" value="&lt;span&gt;request_1&lt;/span&gt;&lt;span&gt;_d0&lt;/span&gt;&lt;div&gt;&lt;span&gt;80/80&lt;/span&gt;&lt;/div&gt;" style="rounded=0;whiteSpace=wrap;html=1;fillColor=#ffe6cc;strokeColor=#d79b00;fontFamily=Tahoma;fontSize=18;" vertex="1" parent="1">
          <mxGeometry x="870" y="525" width="130" height="60" as="geometry" />
        </mxCell>
        <mxCell id="x5xSPJmqWj5T0jCHBnaX-15" value="&lt;span&gt;request_2&lt;/span&gt;&lt;span&gt;_d0&lt;/span&gt;&lt;div&gt;&lt;span&gt;80/80&lt;/span&gt;&lt;/div&gt;" style="rounded=0;whiteSpace=wrap;html=1;fillColor=#e3c800;strokeColor=#B09500;fontColor=#000000;fontFamily=Tahoma;fontSize=18;" vertex="1" parent="1">
          <mxGeometry x="1000" y="525" width="130" height="60" as="geometry" />
        </mxCell>
        <mxCell id="x5xSPJmqWj5T0jCHBnaX-16" value="&lt;span&gt;request_3_d0&lt;/span&gt;&lt;div&gt;&lt;span&gt;80/80&lt;/span&gt;&lt;/div&gt;" style="rounded=0;whiteSpace=wrap;html=1;fillColor=#f8cecc;strokeColor=#b85450;fontFamily=Tahoma;fontSize=18;" vertex="1" parent="1">
          <mxGeometry x="1130" y="525" width="130" height="60" as="geometry" />
        </mxCell>
        <mxCell id="x5xSPJmqWj5T0jCHBnaX-33" value="&lt;span&gt;request_0_d1&lt;/span&gt;&lt;div&gt;&lt;span&gt;20/80&lt;/span&gt;&lt;/div&gt;" style="rounded=0;whiteSpace=wrap;html=1;fillColor=#dae8fc;strokeColor=#6c8ebf;shadow=0;fillStyle=auto;strokeWidth=2;fontFamily=Tahoma;glass=0;fontColor=#0000FF;fontSize=18;" vertex="1" parent="1">
          <mxGeometry x="870" y="345" width="130" height="60" as="geometry" />
        </mxCell>
        <mxCell id="x5xSPJmqWj5T0jCHBnaX-34" value="&lt;span&gt;request_1&lt;/span&gt;&lt;span&gt;_d1&lt;/span&gt;&lt;div&gt;&lt;span&gt;20/80&lt;/span&gt;&lt;/div&gt;" style="rounded=0;whiteSpace=wrap;html=1;fillColor=#ffe6cc;strokeColor=#d79b00;shadow=0;fillStyle=auto;strokeWidth=2;fontFamily=Tahoma;fontColor=#0000FF;fontSize=18;" vertex="1" parent="1">
          <mxGeometry x="1000" y="345" width="130" height="60" as="geometry" />
        </mxCell>
        <mxCell id="x5xSPJmqWj5T0jCHBnaX-35" value="&lt;span&gt;request_2&lt;/span&gt;&lt;span&gt;_d1&lt;/span&gt;&lt;div&gt;&lt;span&gt;20/80&lt;/span&gt;&lt;/div&gt;" style="rounded=0;whiteSpace=wrap;html=1;fillColor=#e3c800;strokeColor=#B09500;shadow=0;fillStyle=auto;fontColor=#0000FF;strokeWidth=2;fontFamily=Tahoma;fontSize=18;" vertex="1" parent="1">
          <mxGeometry x="1130" y="345" width="130" height="60" as="geometry" />
        </mxCell>
        <mxCell id="x5xSPJmqWj5T0jCHBnaX-36" value="&lt;span&gt;request_3&lt;/span&gt;&lt;span&gt;_d1&lt;/span&gt;&lt;div&gt;&lt;span&gt;20/80&lt;/span&gt;&lt;/div&gt;" style="rounded=0;whiteSpace=wrap;html=1;fillColor=#f8cecc;strokeColor=#b85450;shadow=0;fillStyle=auto;strokeWidth=2;fontFamily=Tahoma;fontColor=#0000FF;fontSize=18;" vertex="1" parent="1">
          <mxGeometry x="1260" y="345" width="130" height="60" as="geometry" />
        </mxCell>
        <mxCell id="x5xSPJmqWj5T0jCHBnaX-37" value="&lt;span&gt;request_0_d1&lt;/span&gt;&lt;div&gt;&lt;span&gt;40/80&lt;/span&gt;&lt;/div&gt;" style="rounded=0;whiteSpace=wrap;html=1;fillColor=#dae8fc;strokeColor=#6c8ebf;fillStyle=auto;strokeWidth=2;fontFamily=Tahoma;fontColor=#0000FF;fontSize=18;" vertex="1" parent="1">
          <mxGeometry x="1000" y="405" width="130" height="60" as="geometry" />
        </mxCell>
        <mxCell id="x5xSPJmqWj5T0jCHBnaX-38" value="&lt;span&gt;request_1&lt;/span&gt;&lt;span&gt;_d1&lt;/span&gt;&lt;div&gt;&lt;span&gt;40/80&lt;/span&gt;&lt;/div&gt;" style="rounded=0;whiteSpace=wrap;html=1;fillColor=#ffe6cc;strokeColor=#d79b00;fillStyle=auto;strokeWidth=2;fontFamily=Tahoma;fontColor=#0000FF;fontSize=18;" vertex="1" parent="1">
          <mxGeometry x="1130" y="405" width="130" height="60" as="geometry" />
        </mxCell>
        <mxCell id="x5xSPJmqWj5T0jCHBnaX-39" value="&lt;span&gt;request_2&lt;/span&gt;&lt;span&gt;_d1&lt;/span&gt;&lt;div&gt;&lt;span&gt;40/80&lt;/span&gt;&lt;/div&gt;" style="rounded=0;whiteSpace=wrap;html=1;fillColor=#e3c800;strokeColor=#B09500;fillStyle=auto;fontColor=#0000FF;strokeWidth=2;fontFamily=Tahoma;fontSize=18;" vertex="1" parent="1">
          <mxGeometry x="1260" y="405" width="130" height="60" as="geometry" />
        </mxCell>
        <mxCell id="x5xSPJmqWj5T0jCHBnaX-40" value="&lt;span&gt;request_3&lt;/span&gt;&lt;span&gt;_d1&lt;/span&gt;&lt;div&gt;&lt;span&gt;40/80&lt;/span&gt;&lt;/div&gt;" style="rounded=0;whiteSpace=wrap;html=1;fillColor=#f8cecc;strokeColor=#b85450;fillStyle=auto;strokeWidth=2;fontFamily=Tahoma;fontColor=#0000FF;fontSize=18;" vertex="1" parent="1">
          <mxGeometry x="1390" y="405" width="130" height="60" as="geometry" />
        </mxCell>
        <mxCell id="x5xSPJmqWj5T0jCHBnaX-41" value="&lt;span&gt;request_0_d1&lt;/span&gt;&lt;div&gt;&lt;span&gt;60/80&lt;/span&gt;&lt;/div&gt;" style="rounded=0;whiteSpace=wrap;html=1;fillColor=#dae8fc;strokeColor=#6c8ebf;fillStyle=auto;strokeWidth=2;fontFamily=Tahoma;fontColor=#0000FF;fontSize=18;" vertex="1" parent="1">
          <mxGeometry x="1130" y="465" width="130" height="60" as="geometry" />
        </mxCell>
        <mxCell id="x5xSPJmqWj5T0jCHBnaX-42" value="&lt;span&gt;request_1&lt;/span&gt;&lt;span&gt;_d1&lt;/span&gt;&lt;div&gt;&lt;span&gt;60/80&lt;/span&gt;&lt;/div&gt;" style="rounded=0;whiteSpace=wrap;html=1;fillColor=#ffe6cc;strokeColor=#d79b00;fillStyle=auto;strokeWidth=2;fontFamily=Tahoma;fontColor=#0000FF;fontSize=18;" vertex="1" parent="1">
          <mxGeometry x="1260" y="465" width="130" height="60" as="geometry" />
        </mxCell>
        <mxCell id="x5xSPJmqWj5T0jCHBnaX-43" value="&lt;span&gt;request_2&lt;/span&gt;&lt;span&gt;_d1&lt;/span&gt;&lt;div&gt;&lt;span&gt;60/80&lt;/span&gt;&lt;/div&gt;" style="rounded=0;whiteSpace=wrap;html=1;fillColor=#e3c800;strokeColor=#B09500;fillStyle=auto;fontColor=#0000FF;strokeWidth=2;fontFamily=Tahoma;fontSize=18;" vertex="1" parent="1">
          <mxGeometry x="1390" y="465" width="130" height="60" as="geometry" />
        </mxCell>
        <mxCell id="x5xSPJmqWj5T0jCHBnaX-44" value="&lt;span&gt;request_3&lt;/span&gt;&lt;span&gt;_d1&lt;/span&gt;&lt;div&gt;&lt;span&gt;60/80&lt;/span&gt;&lt;/div&gt;" style="rounded=0;whiteSpace=wrap;html=1;fillColor=#f8cecc;strokeColor=#b85450;fillStyle=auto;strokeWidth=2;fontFamily=Tahoma;fontColor=#0000FF;fontSize=18;" vertex="1" parent="1">
          <mxGeometry x="1520" y="465" width="130" height="60" as="geometry" />
        </mxCell>
        <mxCell id="x5xSPJmqWj5T0jCHBnaX-45" value="&lt;span&gt;request_0_d1&lt;/span&gt;&lt;div&gt;&lt;span&gt;80/80&lt;/span&gt;&lt;/div&gt;" style="rounded=0;whiteSpace=wrap;html=1;fillColor=#dae8fc;strokeColor=#6c8ebf;strokeWidth=2;fontFamily=Tahoma;fontColor=#0000FF;fontSize=18;" vertex="1" parent="1">
          <mxGeometry x="1260" y="525" width="130" height="60" as="geometry" />
        </mxCell>
        <mxCell id="x5xSPJmqWj5T0jCHBnaX-46" value="&lt;span&gt;request_1&lt;/span&gt;&lt;span&gt;_d1&lt;/span&gt;&lt;div&gt;&lt;span&gt;80/80&lt;/span&gt;&lt;/div&gt;" style="rounded=0;whiteSpace=wrap;html=1;fillColor=#ffe6cc;strokeColor=#d79b00;strokeWidth=2;fontFamily=Tahoma;fontColor=#0000FF;fontSize=18;" vertex="1" parent="1">
          <mxGeometry x="1390" y="525" width="130" height="60" as="geometry" />
        </mxCell>
        <mxCell id="x5xSPJmqWj5T0jCHBnaX-47" value="&lt;span&gt;request_2&lt;/span&gt;&lt;span&gt;_d1&lt;/span&gt;&lt;div&gt;&lt;span&gt;80/80&lt;/span&gt;&lt;/div&gt;" style="rounded=0;whiteSpace=wrap;html=1;fillColor=#e3c800;strokeColor=#B09500;fontColor=#0000FF;strokeWidth=2;fontFamily=Tahoma;fontSize=18;" vertex="1" parent="1">
          <mxGeometry x="1520" y="525" width="130" height="60" as="geometry" />
        </mxCell>
        <mxCell id="x5xSPJmqWj5T0jCHBnaX-48" value="&lt;span&gt;request_3&lt;/span&gt;&lt;span&gt;_d1&lt;/span&gt;&lt;div&gt;&lt;span&gt;80/80&lt;/span&gt;&lt;/div&gt;" style="rounded=0;whiteSpace=wrap;html=1;fillColor=#f8cecc;strokeColor=#b85450;strokeWidth=2;fontFamily=Tahoma;fontColor=#0000FF;fontSize=18;" vertex="1" parent="1">
          <mxGeometry x="1650" y="525" width="130" height="60" as="geometry" />
        </mxCell>
      </root>
    </mxGraphModel>
  </diagram>
</mxfile>
